<svg width="9" height="20" viewBox="0 0 9 20" fill="none" xmlns="http://www.w3.org/2000/svg">
<path d="M8.928 3.0912C8.928 3.2256 8.8192 3.3344 8.6848 3.3344H6.7584C6.2848 3.3344 5.9008 3.7184 5.9008 4.192V6.208H8.64C8.6464 6.208 8.6528 6.208 8.6592 6.208C8.7936 6.2208 8.8896 6.336 8.8768 6.4704L8.6336 9.312C8.6208 9.44 8.5184 9.536 8.3904 9.536H5.8944V18.9632C5.8944 19.0976 5.7856 19.2064 5.6512 19.2064H2.208C2.0736 19.2064 1.9648 19.0976 1.9648 18.9632V9.6768V9.5232H0.243199C0.108799 9.5232 0 9.4144 0 9.28V6.4384C0 6.304 0.108799 6.1952 0.243199 6.1952H1.9648V3.456C1.9648 1.5488 3.5136 0 5.4208 0H8.672C8.8064 0 8.9152 0.1088 8.9152 0.2432V3.0912H8.928Z" fill="#5D50C6"/>
</svg>
