<svg width="16" height="16" viewBox="0 0 16 16" fill="none" xmlns="http://www.w3.org/2000/svg">
<path d="M12.8 0.200195H3.19996C1.53328 0.200195 0.199951 1.53352 0.199951 3.2002V12.8002C0.199951 14.4669 1.53328 15.8002 3.19996 15.8002H12.8C14.4666 15.8002 15.8 14.4669 15.8 12.8002V3.20019C15.8 1.53352 14.4666 0.200195 12.8 0.200195ZM13.6666 2.0002H14V4.66685H11.3333V2.0002H13.6666ZM5.79997 6.40021C6.26663 5.73353 7.1333 5.26686 7.99997 5.26686C8.86664 5.26686 9.73331 5.73353 10.2 6.40021C10.5333 6.86687 10.7333 7.4002 10.7333 8.0002C10.7333 9.53353 9.46663 10.7335 7.99997 10.7335C6.5333 10.7335 5.26664 9.53354 5.26664 8.0002C5.26663 7.4002 5.46663 6.86687 5.79997 6.40021ZM14.2666 12.8002C14.2666 13.6002 13.6 14.2669 12.8 14.2669H3.19996C2.39996 14.2669 1.73329 13.6002 1.73329 12.8002V6.40021H4.06662C3.86661 6.86687 3.73329 7.46687 3.73329 8.0002C3.73329 10.3335 5.66663 12.2669 7.99996 12.2669C10.3333 12.2669 12.2666 10.3335 12.2666 8.0002C12.2666 7.46687 12.1333 6.86685 11.9333 6.40021H14.2666L14.2666 12.8002Z" fill="white"/>
</svg>
