<svg width="710" height="487" viewBox="0 0 710 487" fill="none" xmlns="http://www.w3.org/2000/svg">
<g filter="url(#filter0_f_1852_8)">
<circle cx="471" cy="60" r="48" fill="url(#paint0_linear_1852_8)"/>
</g>
<g filter="url(#filter1_f_1852_8)">
<circle cx="24" cy="117" r="20" fill="url(#paint1_linear_1852_8)"/>
</g>
<g filter="url(#filter2_f_1852_8)">
<circle cx="594" cy="212" r="20" fill="#FACD49"/>
</g>
<g filter="url(#filter3_f_1852_8)">
<circle cx="419" cy="299" r="8" fill="#FF5722"/>
</g>
<g filter="url(#filter4_f_1852_8)">
<circle cx="487" cy="467" r="16" fill="#FF5722"/>
</g>
<g filter="url(#filter5_dddd_1852_8)">
<rect x="325" y="123" width="302" height="72" rx="36" fill="white"/>
<path fill-rule="evenodd" clip-rule="evenodd" d="M390.999 154.243L392.199 155.443C393.15 156.377 393.666 157.643 393.666 158.977C393.683 160.31 393.166 161.578 392.233 162.527C392.221 162.539 392.21 162.55 392.199 162.56C392.194 162.566 392.188 162.571 392.182 162.577L390.999 163.76C390.532 164.227 390.265 164.86 390.265 165.528V167.243C390.265 170.01 388.014 172.262 385.247 172.262H383.529C382.862 172.262 382.229 172.527 381.762 172.993L380.562 174.193C379.578 175.178 378.294 175.66 377.01 175.66C375.727 175.66 374.443 175.178 373.459 174.212L372.242 172.993C371.775 172.527 371.141 172.262 370.475 172.262H368.757C365.99 172.262 363.739 170.01 363.739 167.243V165.528C363.739 164.86 363.472 164.227 363.005 163.743L361.805 162.56C359.854 160.612 359.837 157.427 361.788 155.462L363.005 154.243C363.472 153.777 363.739 153.143 363.739 152.46V150.76C363.739 147.993 365.99 145.745 368.757 145.745H370.475C371.141 145.745 371.775 145.477 372.242 145.01L373.442 143.81C375.393 141.845 378.578 141.845 380.545 143.795L381.762 145.01C382.229 145.477 382.862 145.745 383.529 145.745H385.247C388.014 145.745 390.265 147.993 390.265 150.76V152.478C390.265 153.143 390.532 153.777 390.999 154.243ZM372.709 164.743C373.109 164.743 373.476 164.593 373.742 164.31L382.312 155.745C382.879 155.178 382.879 154.243 382.312 153.677C381.745 153.112 380.828 153.112 380.262 153.677L371.692 162.243C371.125 162.81 371.125 163.743 371.692 164.31C371.958 164.593 372.325 164.743 372.709 164.743ZM379.828 163.277C379.828 164.093 380.478 164.743 381.295 164.743C382.095 164.743 382.746 164.093 382.746 163.277C382.746 162.478 382.095 161.827 381.295 161.827C380.478 161.827 379.828 162.478 379.828 163.277ZM372.725 153.26C373.526 153.26 374.176 153.91 374.176 154.71C374.176 155.528 373.526 156.177 372.725 156.177C371.925 156.177 371.258 155.528 371.258 154.71C371.258 153.91 371.925 153.26 372.725 153.26Z" fill="#FF5722"/>
<path d="M418.037 164.056H420.567C423.235 164.056 425.466 162.4 425.466 158.858C425.466 155.316 423.258 153.637 420.59 153.637H418.037V164.056ZM420.682 167H414.863V150.693H420.705C425.351 150.693 428.755 153.706 428.755 158.858C428.755 164.01 425.328 167 420.682 167ZM434.336 167H431.277V155.684H434.336V167ZM430.909 151.981C430.909 150.923 431.76 150.072 432.795 150.072C433.853 150.072 434.681 150.923 434.681 151.981C434.681 152.993 433.853 153.844 432.795 153.844C431.76 153.844 430.909 152.993 430.909 151.981ZM436.645 163.849L439.267 163.274C439.336 164.171 440.003 164.999 441.337 164.999C442.349 164.999 442.832 164.47 442.832 163.872C442.832 163.366 442.487 162.952 441.613 162.768L440.118 162.423C437.933 161.94 436.944 160.629 436.944 159.042C436.944 157.018 438.738 155.339 441.176 155.339C444.396 155.339 445.477 157.386 445.615 158.605L443.062 159.18C442.97 158.513 442.487 157.662 441.199 157.662C440.394 157.662 439.75 158.145 439.75 158.789C439.75 159.341 440.164 159.686 440.785 159.801L442.395 160.146C444.626 160.606 445.753 161.963 445.753 163.619C445.753 165.459 444.327 167.345 441.36 167.345C437.956 167.345 436.783 165.137 436.645 163.849ZM453.25 158.168C451.686 158.168 450.375 159.295 450.375 161.342C450.375 163.389 451.709 164.539 453.273 164.539C454.837 164.539 455.619 163.504 455.872 162.63L458.563 163.527C458.057 165.413 456.286 167.345 453.273 167.345C449.938 167.345 447.316 164.815 447.316 161.342C447.316 157.846 449.892 155.339 453.181 155.339C456.263 155.339 458.011 157.248 458.494 159.157L455.757 160.077C455.481 159.134 454.768 158.168 453.25 158.168ZM465.783 164.562C467.278 164.562 468.658 163.481 468.658 161.342C468.658 159.203 467.278 158.122 465.783 158.122C464.288 158.122 462.908 159.203 462.908 161.342C462.908 163.458 464.288 164.562 465.783 164.562ZM465.783 155.339C469.164 155.339 471.717 157.846 471.717 161.342C471.717 164.815 469.164 167.345 465.783 167.345C462.402 167.345 459.849 164.815 459.849 161.342C459.849 157.846 462.402 155.339 465.783 155.339ZM481.493 167C481.447 166.77 481.401 166.241 481.401 165.781C480.78 166.839 479.469 167.299 478.273 167.299C475.536 167.299 473.972 165.298 473.972 162.837V155.684H477.031V162.216C477.031 163.481 477.675 164.493 479.101 164.493C480.458 164.493 481.24 163.573 481.24 162.262V155.684H484.299V164.953C484.299 165.827 484.368 166.609 484.414 167H481.493ZM490.623 160.491V167H487.564V155.684H490.531V157.087C491.221 155.914 492.578 155.385 493.797 155.385C496.603 155.385 497.891 157.386 497.891 159.87V167H494.832V160.399C494.832 159.134 494.211 158.145 492.739 158.145C491.405 158.145 490.623 159.18 490.623 160.491ZM504.767 152.303V155.684H507.044V158.398H504.767V163.136C504.767 164.125 505.227 164.447 506.101 164.447C506.469 164.447 506.883 164.401 507.044 164.355V166.885C506.768 167 506.216 167.161 505.319 167.161C503.111 167.161 501.731 165.85 501.731 163.665V158.398H499.684V155.684H500.259C501.455 155.684 502.007 154.902 502.007 153.89V152.303H504.767ZM511.761 160.054H516.821C516.775 158.927 516.039 157.823 514.291 157.823C512.704 157.823 511.83 159.019 511.761 160.054ZM517.12 162.998L519.673 163.757C519.098 165.712 517.304 167.345 514.521 167.345C511.416 167.345 508.679 165.114 508.679 161.296C508.679 157.685 511.347 155.339 514.245 155.339C517.741 155.339 519.834 157.57 519.834 161.204C519.834 161.641 519.788 162.101 519.788 162.147H511.692C511.761 163.642 513.026 164.723 514.544 164.723C515.97 164.723 516.752 164.01 517.12 162.998ZM533.03 150.348V164.953C533.03 165.712 533.076 166.54 533.122 167H530.201C530.155 166.77 530.086 166.218 530.086 165.689C529.58 166.586 528.43 167.276 526.912 167.276C523.692 167.276 521.392 164.746 521.392 161.319C521.392 158.007 523.623 155.408 526.82 155.408C528.775 155.408 529.695 156.213 530.017 156.811V150.348H533.03ZM524.474 161.319C524.474 163.343 525.67 164.539 527.28 164.539C528.844 164.539 530.063 163.343 530.063 161.296C530.063 159.272 528.844 158.145 527.28 158.145C525.716 158.145 524.474 159.295 524.474 161.319ZM545.458 158.122H547.965C549.552 158.122 550.518 157.202 550.518 155.799C550.518 154.35 549.552 153.453 547.965 153.453H545.458V158.122ZM548.356 160.859H545.435V167H542.261V150.693H548.356C551.576 150.693 553.715 152.832 553.715 155.776C553.715 158.743 551.576 160.859 548.356 160.859ZM562.61 155.638V158.72C562.265 158.651 561.966 158.628 561.69 158.628C560.126 158.628 558.769 159.387 558.769 161.825V167H555.71V155.684H558.677V157.363C559.367 155.868 560.931 155.592 561.897 155.592C562.15 155.592 562.38 155.615 562.61 155.638ZM567.821 167H564.762V155.684H567.821V167ZM564.394 151.981C564.394 150.923 565.245 150.072 566.28 150.072C567.338 150.072 568.166 150.923 568.166 151.981C568.166 152.993 567.338 153.844 566.28 153.844C565.245 153.844 564.394 152.993 564.394 151.981ZM576.179 158.168C574.615 158.168 573.304 159.295 573.304 161.342C573.304 163.389 574.638 164.539 576.202 164.539C577.766 164.539 578.548 163.504 578.801 162.63L581.492 163.527C580.986 165.413 579.215 167.345 576.202 167.345C572.867 167.345 570.245 164.815 570.245 161.342C570.245 157.846 572.821 155.339 576.11 155.339C579.192 155.339 580.94 157.248 581.423 159.157L578.686 160.077C578.41 159.134 577.697 158.168 576.179 158.168ZM585.86 160.054H590.92C590.874 158.927 590.138 157.823 588.39 157.823C586.803 157.823 585.929 159.019 585.86 160.054ZM591.219 162.998L593.772 163.757C593.197 165.712 591.403 167.345 588.62 167.345C585.515 167.345 582.778 165.114 582.778 161.296C582.778 157.685 585.446 155.339 588.344 155.339C591.84 155.339 593.933 157.57 593.933 161.204C593.933 161.641 593.887 162.101 593.887 162.147H585.791C585.86 163.642 587.125 164.723 588.643 164.723C590.069 164.723 590.851 164.01 591.219 162.998Z" fill="#191825"/>
</g>
<defs>
<filter id="filter0_f_1852_8" x="411" y="0" width="120" height="120" filterUnits="userSpaceOnUse" color-interpolation-filters="sRGB">
<feFlood flood-opacity="0" result="BackgroundImageFix"/>
<feBlend mode="normal" in="SourceGraphic" in2="BackgroundImageFix" result="shape"/>
<feGaussianBlur stdDeviation="6" result="effect1_foregroundBlur_1852_8"/>
</filter>
<filter id="filter1_f_1852_8" x="0" y="93" width="48" height="48" filterUnits="userSpaceOnUse" color-interpolation-filters="sRGB">
<feFlood flood-opacity="0" result="BackgroundImageFix"/>
<feBlend mode="normal" in="SourceGraphic" in2="BackgroundImageFix" result="shape"/>
<feGaussianBlur stdDeviation="2" result="effect1_foregroundBlur_1852_8"/>
</filter>
<filter id="filter2_f_1852_8" x="570" y="188" width="48" height="48" filterUnits="userSpaceOnUse" color-interpolation-filters="sRGB">
<feFlood flood-opacity="0" result="BackgroundImageFix"/>
<feBlend mode="normal" in="SourceGraphic" in2="BackgroundImageFix" result="shape"/>
<feGaussianBlur stdDeviation="2" result="effect1_foregroundBlur_1852_8"/>
</filter>
<filter id="filter3_f_1852_8" x="407" y="287" width="24" height="24" filterUnits="userSpaceOnUse" color-interpolation-filters="sRGB">
<feFlood flood-opacity="0" result="BackgroundImageFix"/>
<feBlend mode="normal" in="SourceGraphic" in2="BackgroundImageFix" result="shape"/>
<feGaussianBlur stdDeviation="2" result="effect1_foregroundBlur_1852_8"/>
</filter>
<filter id="filter4_f_1852_8" x="467" y="447" width="40" height="40" filterUnits="userSpaceOnUse" color-interpolation-filters="sRGB">
<feFlood flood-opacity="0" result="BackgroundImageFix"/>
<feBlend mode="normal" in="SourceGraphic" in2="BackgroundImageFix" result="shape"/>
<feGaussianBlur stdDeviation="2" result="effect1_foregroundBlur_1852_8"/>
</filter>
<filter id="filter5_dddd_1852_8" x="242" y="104" width="468" height="313" filterUnits="userSpaceOnUse" color-interpolation-filters="sRGB">
<feFlood flood-opacity="0" result="BackgroundImageFix"/>
<feColorMatrix in="SourceAlpha" type="matrix" values="0 0 0 0 0 0 0 0 0 0 0 0 0 0 0 0 0 0 127 0" result="hardAlpha"/>
<feOffset/>
<feColorMatrix type="matrix" values="0 0 0 0 0 0 0 0 0 0 0 0 0 0 0 0 0 0 0.03 0"/>
<feBlend mode="normal" in2="BackgroundImageFix" result="effect1_dropShadow_1852_8"/>
<feColorMatrix in="SourceAlpha" type="matrix" values="0 0 0 0 0 0 0 0 0 0 0 0 0 0 0 0 0 0 127 0" result="hardAlpha"/>
<feOffset dy="15"/>
<feGaussianBlur stdDeviation="17"/>
<feColorMatrix type="matrix" values="0 0 0 0 0 0 0 0 0 0 0 0 0 0 0 0 0 0 0.03 0"/>
<feBlend mode="normal" in2="effect1_dropShadow_1852_8" result="effect2_dropShadow_1852_8"/>
<feColorMatrix in="SourceAlpha" type="matrix" values="0 0 0 0 0 0 0 0 0 0 0 0 0 0 0 0 0 0 127 0" result="hardAlpha"/>
<feOffset dy="62"/>
<feGaussianBlur stdDeviation="31"/>
<feColorMatrix type="matrix" values="0 0 0 0 0 0 0 0 0 0 0 0 0 0 0 0 0 0 0.02 0"/>
<feBlend mode="normal" in2="effect2_dropShadow_1852_8" result="effect3_dropShadow_1852_8"/>
<feColorMatrix in="SourceAlpha" type="matrix" values="0 0 0 0 0 0 0 0 0 0 0 0 0 0 0 0 0 0 127 0" result="hardAlpha"/>
<feOffset dy="139"/>
<feGaussianBlur stdDeviation="41.5"/>
<feColorMatrix type="matrix" values="0 0 0 0 0 0 0 0 0 0 0 0 0 0 0 0 0 0 0.01 0"/>
<feBlend mode="normal" in2="effect3_dropShadow_1852_8" result="effect4_dropShadow_1852_8"/>
<feBlend mode="normal" in="SourceGraphic" in2="effect4_dropShadow_1852_8" result="shape"/>
</filter>
<linearGradient id="paint0_linear_1852_8" x1="509.4" y1="115.68" x2="414.04" y2="97.4235" gradientUnits="userSpaceOnUse">
<stop stop-color="#5D50C6"/>
<stop offset="1" stop-color="#F85E9F"/>
</linearGradient>
<linearGradient id="paint1_linear_1852_8" x1="40" y1="140.2" x2="0.266783" y2="132.593" gradientUnits="userSpaceOnUse">
<stop stop-color="#5D50C6"/>
<stop offset="1" stop-color="#F85E9F"/>
</linearGradient>
</defs>
</svg>
